<mxfile host="app.diagrams.net" agent="Mozilla/5.0 (Windows NT 10.0; Win64; x64) AppleWebKit/537.36 (KHTML, like Gecko) Chrome/129.0.0.0 Safari/537.36" version="24.8.0">
  <diagram name="Page-1" id="_jYhdMdKvyP3LcUP2i4e">
    <mxGraphModel dx="1257" dy="609" grid="1" gridSize="10" guides="1" tooltips="1" connect="1" arrows="1" fold="1" page="1" pageScale="1" pageWidth="850" pageHeight="1100" math="0" shadow="0">
      <root>
        <mxCell id="0" />
        <mxCell id="1" parent="0" />
        <mxCell id="nr9JZvoVQof7qF1TdwQZ-1" value="Medical Report" style="rounded=1;whiteSpace=wrap;html=1;" vertex="1" parent="1">
          <mxGeometry x="330" y="180" width="120" height="60" as="geometry" />
        </mxCell>
        <mxCell id="nr9JZvoVQof7qF1TdwQZ-21" style="edgeStyle=orthogonalEdgeStyle;rounded=0;orthogonalLoop=1;jettySize=auto;html=1;entryX=0.5;entryY=0;entryDx=0;entryDy=0;" edge="1" parent="1" source="nr9JZvoVQof7qF1TdwQZ-2" target="nr9JZvoVQof7qF1TdwQZ-7">
          <mxGeometry relative="1" as="geometry" />
        </mxCell>
        <mxCell id="nr9JZvoVQof7qF1TdwQZ-2" value="Image" style="rounded=1;whiteSpace=wrap;html=1;" vertex="1" parent="1">
          <mxGeometry x="330" y="320" width="120" height="60" as="geometry" />
        </mxCell>
        <mxCell id="nr9JZvoVQof7qF1TdwQZ-22" style="edgeStyle=orthogonalEdgeStyle;rounded=0;orthogonalLoop=1;jettySize=auto;html=1;entryX=0.5;entryY=0;entryDx=0;entryDy=0;" edge="1" parent="1" source="nr9JZvoVQof7qF1TdwQZ-7" target="nr9JZvoVQof7qF1TdwQZ-8">
          <mxGeometry relative="1" as="geometry" />
        </mxCell>
        <mxCell id="nr9JZvoVQof7qF1TdwQZ-7" value="OCR" style="rounded=1;whiteSpace=wrap;html=1;" vertex="1" parent="1">
          <mxGeometry x="330" y="430" width="120" height="60" as="geometry" />
        </mxCell>
        <mxCell id="nr9JZvoVQof7qF1TdwQZ-23" style="edgeStyle=orthogonalEdgeStyle;rounded=0;orthogonalLoop=1;jettySize=auto;html=1;entryX=0.5;entryY=0;entryDx=0;entryDy=0;" edge="1" parent="1" source="nr9JZvoVQof7qF1TdwQZ-8" target="nr9JZvoVQof7qF1TdwQZ-9">
          <mxGeometry relative="1" as="geometry" />
        </mxCell>
        <mxCell id="nr9JZvoVQof7qF1TdwQZ-8" value="Extracted Data" style="rounded=1;whiteSpace=wrap;html=1;" vertex="1" parent="1">
          <mxGeometry x="330" y="530" width="120" height="60" as="geometry" />
        </mxCell>
        <mxCell id="nr9JZvoVQof7qF1TdwQZ-24" style="edgeStyle=orthogonalEdgeStyle;rounded=0;orthogonalLoop=1;jettySize=auto;html=1;entryX=0.5;entryY=0;entryDx=0;entryDy=0;" edge="1" parent="1" source="nr9JZvoVQof7qF1TdwQZ-9" target="nr9JZvoVQof7qF1TdwQZ-10">
          <mxGeometry relative="1" as="geometry" />
        </mxCell>
        <mxCell id="nr9JZvoVQof7qF1TdwQZ-9" value="Data Analysis" style="rounded=1;whiteSpace=wrap;html=1;" vertex="1" parent="1">
          <mxGeometry x="330" y="630" width="120" height="60" as="geometry" />
        </mxCell>
        <mxCell id="nr9JZvoVQof7qF1TdwQZ-10" value="Represent Data" style="rounded=1;whiteSpace=wrap;html=1;" vertex="1" parent="1">
          <mxGeometry x="330" y="720" width="120" height="60" as="geometry" />
        </mxCell>
        <mxCell id="nr9JZvoVQof7qF1TdwQZ-15" value="" style="endArrow=none;html=1;rounded=0;" edge="1" parent="1">
          <mxGeometry width="50" height="50" relative="1" as="geometry">
            <mxPoint x="390" y="270" as="sourcePoint" />
            <mxPoint x="390" y="240" as="targetPoint" />
          </mxGeometry>
        </mxCell>
        <mxCell id="nr9JZvoVQof7qF1TdwQZ-16" value="" style="endArrow=none;html=1;rounded=0;" edge="1" parent="1">
          <mxGeometry width="50" height="50" relative="1" as="geometry">
            <mxPoint x="350" y="270" as="sourcePoint" />
            <mxPoint x="430" y="270" as="targetPoint" />
          </mxGeometry>
        </mxCell>
        <mxCell id="nr9JZvoVQof7qF1TdwQZ-17" value="" style="endArrow=classic;html=1;rounded=0;entryX=0.833;entryY=-0.041;entryDx=0;entryDy=0;entryPerimeter=0;" edge="1" parent="1" target="nr9JZvoVQof7qF1TdwQZ-2">
          <mxGeometry width="50" height="50" relative="1" as="geometry">
            <mxPoint x="430" y="270" as="sourcePoint" />
            <mxPoint x="490" y="240" as="targetPoint" />
          </mxGeometry>
        </mxCell>
        <mxCell id="nr9JZvoVQof7qF1TdwQZ-19" value="Camera" style="edgeLabel;html=1;align=center;verticalAlign=middle;resizable=0;points=[];" vertex="1" connectable="0" parent="nr9JZvoVQof7qF1TdwQZ-17">
          <mxGeometry x="0.0057" y="4" relative="1" as="geometry">
            <mxPoint as="offset" />
          </mxGeometry>
        </mxCell>
        <mxCell id="nr9JZvoVQof7qF1TdwQZ-18" value="" style="endArrow=classic;html=1;rounded=0;entryX=0.833;entryY=-0.041;entryDx=0;entryDy=0;entryPerimeter=0;" edge="1" parent="1">
          <mxGeometry width="50" height="50" relative="1" as="geometry">
            <mxPoint x="350" y="270" as="sourcePoint" />
            <mxPoint x="350" y="320" as="targetPoint" />
          </mxGeometry>
        </mxCell>
        <mxCell id="nr9JZvoVQof7qF1TdwQZ-20" value="Gallery" style="edgeLabel;html=1;align=center;verticalAlign=middle;resizable=0;points=[];" vertex="1" connectable="0" parent="nr9JZvoVQof7qF1TdwQZ-18">
          <mxGeometry x="0.0265" y="3" relative="1" as="geometry">
            <mxPoint as="offset" />
          </mxGeometry>
        </mxCell>
      </root>
    </mxGraphModel>
  </diagram>
</mxfile>
